<?xml version="1.0" encoding="UTF-8"?>
<svg xmlns="http://www.w3.org/2000/svg" xmlns:xlink="http://www.w3.org/1999/xlink" viewBox="0 0 12 12" width="12px" height="12px">
<g id="surface106660865">
<path style=" stroke:none;fill-rule:nonzero;fill:rgb(100%,100%,100%);fill-opacity:1;" d="M 10.800781 2.300781 C 10.726562 2.300781 10.65625 2.320312 10.597656 2.359375 C 8.316406 3.78125 6.445312 5.695312 4.886719 7.957031 C 4.097656 6.875 3.21875 5.929688 2.144531 5.300781 C 2.027344 5.230469 1.882812 5.226562 1.761719 5.292969 C 1.640625 5.359375 1.570312 5.484375 1.570312 5.621094 C 1.570312 5.757812 1.644531 5.882812 1.765625 5.949219 C 2.847656 6.582031 3.769531 7.570312 4.589844 8.78125 C 4.660156 8.886719 4.777344 8.949219 4.90625 8.945312 C 5.03125 8.945312 5.144531 8.882812 5.214844 8.777344 C 6.78125 6.402344 8.675781 4.441406 10.992188 2.996094 C 11.136719 2.910156 11.207031 2.738281 11.160156 2.574219 C 11.113281 2.414062 10.96875 2.300781 10.800781 2.300781 Z M 10.800781 2.300781 "/>
</g>
</svg>
