<?xml version="1.0" encoding="UTF-8"?>
<svg xmlns="http://www.w3.org/2000/svg" xmlns:xlink="http://www.w3.org/1999/xlink" width="15px" height="17px" viewBox="0 0 15 17" version="1.1">
<g id="surface1">
<path style=" stroke:none;fill-rule:nonzero;fill:rgb(0%,0%,0%);fill-opacity:1;" d="M 3.359375 14.875 L 0.246094 14.875 L 0.246094 4.945312 L 3.359375 4.945312 Z M 1.800781 3.589844 C 0.804688 3.589844 0 2.773438 0 1.785156 C 0 0.800781 0.804688 0 1.800781 0 C 2.796875 0 3.601562 0.800781 3.601562 1.785156 C 3.601562 2.773438 2.796875 3.589844 1.800781 3.589844 Z M 14.996094 14.875 L 11.894531 14.875 L 11.894531 10.039062 C 11.894531 8.886719 11.871094 7.410156 10.277344 7.410156 C 8.660156 7.410156 8.410156 8.664062 8.410156 9.957031 L 8.410156 14.875 L 5.304688 14.875 L 5.304688 4.945312 L 8.289062 4.945312 L 8.289062 6.296875 L 8.332031 6.296875 C 8.746094 5.519531 9.761719 4.695312 11.273438 4.695312 C 14.421875 4.695312 15 6.75 15 9.417969 L 15 14.875 Z M 14.996094 14.875 "/>
</g>
</svg>
