<?xml version="1.0" encoding="UTF-8"?>
<svg xmlns="http://www.w3.org/2000/svg" xmlns:xlink="http://www.w3.org/1999/xlink" width="14px" height="16px" viewBox="0 0 14 16" version="1.1">
<g id="surface1">
<path style=" stroke:none;fill-rule:nonzero;fill:rgb(0%,0%,0%);fill-opacity:1;" d="M 12.5625 4.742188 C 12.570312 4.882812 12.570312 5.027344 12.570312 5.167969 C 12.570312 9.503906 9.683594 14.496094 4.40625 14.496094 C 2.78125 14.496094 1.269531 13.960938 0 13.027344 C 0.230469 13.054688 0.453125 13.066406 0.691406 13.066406 C 2.035156 13.066406 3.269531 12.546875 4.253906 11.664062 C 2.992188 11.632812 1.9375 10.691406 1.574219 9.390625 C 1.75 9.421875 1.925781 9.441406 2.113281 9.441406 C 2.371094 9.441406 2.628906 9.402344 2.871094 9.328125 C 1.554688 9.023438 0.570312 7.707031 0.570312 6.113281 L 0.570312 6.070312 C 0.949219 6.316406 1.394531 6.46875 1.867188 6.488281 C 1.09375 5.898438 0.585938 4.894531 0.585938 3.757812 C 0.585938 3.148438 0.726562 2.589844 0.976562 2.101562 C 2.390625 4.089844 4.511719 5.390625 6.894531 5.53125 C 6.847656 5.289062 6.824219 5.035156 6.824219 4.78125 C 6.824219 2.976562 8.101562 1.503906 9.691406 1.503906 C 10.519531 1.503906 11.265625 1.898438 11.789062 2.539062 C 12.4375 2.394531 13.058594 2.121094 13.609375 1.746094 C 13.394531 2.507812 12.941406 3.148438 12.347656 3.554688 C 12.925781 3.480469 13.484375 3.300781 14 3.046875 C 13.609375 3.695312 13.121094 4.273438 12.5625 4.742188 Z M 12.5625 4.742188 "/>
</g>
</svg>
